<svg width="67" height="61" viewBox="0 0 67 61" fill="none" xmlns="http://www.w3.org/2000/svg">
<path d="M53.1779 38.0374L45.799 54.1054L37.0977 60.8948V51.1079L47.7799 28.5368L31.568 0L10.8259 40.0765L21.3166 40.1934L31.568 21.128L35.9606 28.2797L24.5662 51.1079H5.11671L0 61H36.96H37.0977H66.224L53.1779 38.0374Z" fill="url(#paint0_linear_304_2)"/>
<path d="M37.9236 56.1801V60.1768L41.0475 57.7301C41.0475 57.7301 38.8631 57.8726 37.9236 56.1801Z" fill="url(#paint1_linear_304_2)"/>
<path d="M39.5632 52.219L39.9043 52.3793C40.0346 52.4402 40.1758 52.4748 40.3197 52.4811C40.4636 52.4874 40.6073 52.4654 40.7426 52.4162C40.8778 52.3671 41.0019 52.2918 41.1076 52.1947C41.2133 52.0977 41.2986 51.9807 41.3585 51.8508L50.1497 33.0726L48.6117 30.2874L39.0365 50.758C38.9713 50.8877 38.9332 51.0292 38.9245 51.1739C38.9158 51.3185 38.9367 51.4635 38.9859 51.6C39.0351 51.7364 39.1116 51.8616 39.2108 51.968C39.31 52.0744 39.4299 52.1597 39.5632 52.219Z" fill="url(#paint2_linear_304_2)"/>
<path d="M42.8787 54.1431L43.2258 54.2975C43.3554 54.3576 43.4958 54.3918 43.6387 54.3981C43.7817 54.4043 43.9245 54.3826 44.059 54.3341C44.1935 54.2855 44.3171 54.2112 44.4226 54.1152C44.5281 54.0193 44.6135 53.9036 44.674 53.7749L52.4538 37.1763L50.9038 34.4445L42.346 52.7C42.2255 52.9617 42.2138 53.26 42.3135 53.5302C42.4132 53.8004 42.6163 54.0206 42.8787 54.1431Z" fill="url(#paint3_linear_304_2)"/>
<defs>
<linearGradient id="paint0_linear_304_2" x1="0" y1="0" x2="74.1552" y2="12.0037" gradientUnits="userSpaceOnUse">
<stop stop-color="#F0E081"/>
<stop offset="1" stop-color="#CFAD4F"/>
</linearGradient>
<linearGradient id="paint1_linear_304_2" x1="37.9236" y1="56.1801" x2="41.4652" y2="56.5928" gradientUnits="userSpaceOnUse">
<stop stop-color="#F0E081"/>
<stop offset="1" stop-color="#CFAD4F"/>
</linearGradient>
<linearGradient id="paint2_linear_304_2" x1="38.9226" y1="30.2874" x2="51.7507" y2="31.2549" gradientUnits="userSpaceOnUse">
<stop stop-color="#F0E081"/>
<stop offset="1" stop-color="#CFAD4F"/>
</linearGradient>
<linearGradient id="paint3_linear_304_2" x1="42.2463" y1="34.4445" x2="53.9079" y2="35.3339" gradientUnits="userSpaceOnUse">
<stop stop-color="#F0E081"/>
<stop offset="1" stop-color="#CFAD4F"/>
</linearGradient>
</defs>
</svg>
